<?xml version="1.0" encoding="UTF-8"?>
<svg id="katman_1" data-name="katman 1" xmlns="http://www.w3.org/2000/svg" viewBox="0 0 600.41 543.84">
  <defs>
    <style>
      .cls-1 {
        fill: #086ab2;
      }

      .cls-2 {
        fill: #fff;
      }

      .cls-3 {
        fill: none;
      }

      .cls-4 {
        fill: #010101;
      }
    </style>
  </defs>
  <path class="cls-1" d="m.2,117.79c.07,87.32.21,118.65.56,121.74.21,2.34.56,6.34.84,8.91.77,9.21,1.96,18.19,3.92,29.51,1.05,6.04,4.34,21.43,5.32,24.98.35,1.36,1.12,4.15,1.68,6.26,6.72,25.43,19.12,55.02,33.48,79.78,11.7,20.23,23.74,37.06,39.92,55.7,26.55,30.64,57.02,56.76,92.18,79.1,11.14,7.02,35.09,20.08,36.91,20.08s25.78-12.98,36.91-20.08c35.16-22.26,65.63-48.38,92.18-79.1,16.18-18.72,28.23-35.47,39.92-55.7,14.36-24.83,26.76-54.34,33.48-79.78.56-2.11,1.26-4.91,1.68-6.26.98-3.55,4.27-18.94,5.32-24.98,1.96-11.32,3.15-20.3,3.92-29.51.21-2.57.56-6.57.84-8.91.35-3.17.49-34.49.56-121.74l.14-117.51H.06l.14,117.51h0Z"/>
  <path class="cls-2" d="m0,0h429.72S222.74,107.02,0,0Z"/>
  <path class="cls-2" d="m411.22,386.17h-143.87c-58.49,0-105.91-51.1-105.91-114.12h0c0-63.02,47.42-114.12,105.91-114.12h143.94c58.49,0,105.91,51.1,105.91,114.12h0c0,63.02-47.42,114.12-105.98,114.12h0Z"/>
  <rect class="cls-3" x="217.76" y="220.96" width="382.65" height="132.46"/>
  <g>
    <path class="cls-4" d="m269.04,247.24l-18.66,53.62h-7.26l-18.66-53.62h7.98l14.51,42.45,14.51-42.45h7.56Z"/>
    <path class="cls-4" d="m327,293.7v7.15h-43.74v-7.15h18.14v-39.31h-16.07v-7.15h23.53v46.47h18.14Zm-29.54-66.91c0-4.02,2.9-7.15,6.63-7.15s6.63,3.12,6.63,7.15-2.9,7.15-6.63,7.15-6.63-3.12-6.63-7.15Z"/>
    <path class="cls-4" d="m385.77,257.29l-6.22,3.8c-2.38-5.25-5.81-7.82-11.09-7.82-9.74,0-16.48,8.82-16.48,22.67v24.91h-7.47v-53.62h7.05v11.73c3.42-9.05,9.64-13.07,17.52-13.07s13.37,3.58,16.69,11.4h0Z"/>
    <path class="cls-4" d="m444.45,291.91c-3.84,6.48-10.26,10.28-18.25,10.28-10.58,0-16.38-6.48-16.38-18.2v-29.6h-12.96v-7.15h12.96l1.45-20.11h6.01v20.11h23.32v7.15h-23.32v28.71c0,7.71,3.22,11.73,9.54,11.73,5.18,0,9.54-3.02,12.33-7.71l5.29,4.8h0Z"/>
    <path class="cls-4" d="m498.56,247.24v53.62h-7.05v-10.39c-3.32,7.82-9.02,11.73-16.89,11.73-10.06,0-15.86-6.7-15.86-18.2v-36.75h7.47v35.86c0,7.71,3.22,11.73,9.54,11.73,8.71,0,15.34-8.6,15.34-19.55v-28.04h7.47-.01Z"/>
    <path class="cls-4" d="m514.83,293.26l4.56-5.81c3.94,4.8,10.06,7.37,17.73,7.37,8.71,0,13.78-3.68,13.78-9.27,0-4.24-2.7-6.26-8.81-7.15l-10.67-1.56c-9.64-1.45-14.41-6.14-14.41-14.18,0-10.28,7.56-16.76,19.91-16.76,8.5,0,15.03,2.79,19.8,8.26l-4.66,5.7c-3.52-4.35-8.81-6.59-15.14-6.59-7.77,0-12.44,3.46-12.44,8.71,0,4.02,2.7,6.14,8.81,7.03l10.67,1.56c9.64,1.45,14.41,6.26,14.41,14.41,0,10.61-7.77,17.2-21.45,17.2-9.43,0-16.8-3.02-22.08-8.94h0Z"/>
  </g>
  <rect class="cls-2" x="397.78" y="157.94" width="41.82" height="26.94"/>
</svg>